<?xml version="1.0" encoding="UTF-8" standalone="no"?>
<svg
   width="256"
   height="256"
   viewBox="0 0 67.733331 67.733331"
   version="1.1"
   id="svg8"
   inkscape:version="1.1 (c4e8f9ed74, 2021-05-24)"
   sodipodi:docname="logo.svg"
   inkscape:export-filename="/home/katsuoryuu/Work/Asurion/AsurionTelemetrySystem/telemetry-data-layer/source/messenger/assets/logo.png"
   inkscape:export-xdpi="96"
   inkscape:export-ydpi="96"
   xmlns:inkscape="http://www.inkscape.org/namespaces/inkscape"
   xmlns:sodipodi="http://sodipodi.sourceforge.net/DTD/sodipodi-0.dtd"
   xmlns="http://www.w3.org/2000/svg"
   xmlns:svg="http://www.w3.org/2000/svg"
   xmlns:rdf="http://www.w3.org/1999/02/22-rdf-syntax-ns#"
   xmlns:cc="http://creativecommons.org/ns#"
   xmlns:dc="http://purl.org/dc/elements/1.1/">
  <defs
     id="defs2" />
  <sodipodi:namedview
     id="base"
     pagecolor="#bfbac7"
     bordercolor="#666666"
     borderopacity="1.0"
     inkscape:pageopacity="0"
     inkscape:pageshadow="2"
     inkscape:zoom="1.4"
     inkscape:cx="109.64286"
     inkscape:cy="100"
     inkscape:document-units="mm"
     inkscape:current-layer="layer1"
     inkscape:document-rotation="0"
     showgrid="false"
     inkscape:window-width="1920"
     inkscape:window-height="1043"
     inkscape:window-x="2560"
     inkscape:window-y="491"
     inkscape:window-maximized="1"
     inkscape:lockguides="true"
     units="px"
     inkscape:pagecheckerboard="0" />
  <metadata
     id="metadata5">
    <rdf:RDF>
      <cc:Work
         rdf:about="">
        <dc:format>image/svg+xml</dc:format>
        <dc:type
           rdf:resource="http://purl.org/dc/dcmitype/StillImage" />
      </cc:Work>
    </rdf:RDF>
  </metadata>
  <g
     inkscape:label="Layer 1"
     inkscape:groupmode="layer"
     id="layer1"
     style="display:inline">
    <path
       style="fill:#020202;stroke:#ffffff;stroke-width:3;stroke-miterlimit:4;stroke-dasharray:none;stroke-opacity:1"
       d="M 33.606211,2.9605759 C 32.906501,3.1441646 32.372015,4.5081721 32.021609,5.0887951 31.860796,5.3552447 31.689856,5.7766154 31.349679,5.83372 30.521401,5.9727489 29.613191,4.547942 29.101772,3.9856611 28.764455,3.6148362 28.298917,3.2953991 27.789704,3.5889626 27.169222,3.9466492 26.923065,5.349619 26.683828,5.9913877 26.563483,6.3141945 26.49654,6.7157525 26.134501,6.8358271 25.339969,7.0993539 24.262073,5.9267421 23.62755,5.4753606 23.243147,5.201915 22.831715,4.9577931 22.37415,5.2394975 21.702772,5.6528153 21.752314,7.1881149 21.634175,7.8968596 21.578318,8.2319724 21.587588,8.6336261 21.269829,8.831947 20.565505,9.2715592 19.239848,8.3317092 18.563005,8.0099346 18.149918,7.8135705 17.665326,7.6636401 17.268537,7.986571 c -0.360536,0.2934927 -0.29224,0.7082351 -0.26451,1.1137492 0.04528,0.660949 0.324934,2.2248388 -0.197016,2.6931838 -0.341332,0.30623 -0.646557,0.175305 -1.052072,0.08223 -0.736315,-0.168985 -2.346741,-0.900635 -2.938741,-0.21281 -0.533231,0.61948 0.09999,2.052494 0.274739,2.752656 0.07698,0.308335 0.25734,0.715854 0.06142,1.002879 -0.487799,0.714754 -2.040303,0.382849 -2.812976,0.349052 -0.4809842,-0.02106 -0.9897421,-0.0725 -1.2326934,0.453453 -0.3444925,0.745843 0.5586534,1.983197 0.852801,2.657433 0.1495804,0.342835 0.3720654,0.631764 0.1911054,1.002881 -0.3482529,0.71435 -1.9979885,0.669422 -2.7195594,0.789917 -0.5012735,0.08368 -0.9974746,0.224395 -1.0676596,0.814691 -0.090096,0.757626 0.9471298,1.728414 1.3614762,2.306623 0.2955546,0.412436 0.56907,0.689482 0.3177712,1.200701 -0.137343,0.279401 -0.543141,0.351258 -0.8121753,0.451546 -0.6416788,0.239237 -2.1133864,0.499284 -2.4283436,1.155869 -0.4549723,0.948475 1.1295799,1.95988 1.7263291,2.478268 0.1865054,0.162016 0.4941438,0.37924 0.5571636,0.630612 0.1364563,0.544312 -0.3128762,0.803057 -0.7075954,1.042845 -0.676251,0.41078 -2.2394143,0.985631 -2.2041326,1.915652 0.03216,0.846983 1.5746908,1.424491 2.2041322,1.821182 0.4056797,0.255633 0.7284404,0.408472 0.715872,0.93674 -0.00828,0.328292 -0.392189,0.569434 -0.6155841,0.766501 -0.5853867,0.516283 -1.9477378,1.38924 -1.7283036,2.292283 0.1007371,0.41444 0.4645376,0.557551 0.8257132,0.686573 0.5879288,0.210003 1.1714945,0.435752 1.7550367,0.657688 0.4415406,0.167882 0.8580508,0.33451 0.843484,0.897879 -0.00591,0.228557 -0.2861548,0.488352 -0.4133058,0.666215 -0.4499473,0.629306 -1.7947285,1.875184 -1.2823526,2.707574 0.4124664,0.670075 1.9493812,0.621988 2.6573668,0.739977 0.4667367,0.07777 0.8256659,0.08585 1.039035,0.563969 0.15198,0.340528 -0.08064,0.643699 -0.2154737,0.952738 -0.3122496,0.715703 -1.3759365,2.167574 -0.6967532,2.891853 0.3097902,0.330299 0.7278966,0.248866 1.1267899,0.221538 0.730095,-0.04999 2.241486,-0.338572 2.725374,0.296451 0.230814,0.302871 0.07276,0.666213 -0.01124,1.002831 -0.187588,0.751408 -0.901237,2.351754 -0.154643,2.936935 0.606191,0.474864 2.084688,-0.168485 2.755766,-0.335966 0.37633,-0.09377 0.724431,-0.243199 1.052773,0.02908 0.579315,0.479876 0.294446,2.035345 0.246459,2.735355 -0.03209,0.469347 -0.08103,0.94371 0.406417,1.207467 0.750805,0.406167 2.022057,-0.528517 2.707024,-0.827375 0.382299,-0.16698 0.644852,-0.379591 1.052974,-0.166478 0.387916,0.203084 0.390372,0.54707 0.45536,0.939698 0.121699,0.734611 0.06824,2.484637 0.898581,2.777478 0.808871,0.284818 1.906022,-0.875014 2.507199,-1.317284 0.364298,-0.268269 0.591549,-0.51849 1.053024,-0.371064 0.386961,0.124356 0.449943,0.47035 0.580468,0.816344 0.254731,0.675438 0.553089,2.392871 1.37515,2.540796 0.875464,0.157954 1.732676,-1.15983 2.235219,-1.738492 0.30618,-0.352514 0.52927,-0.653879 1.024143,-0.599723 0.383402,0.04211 0.534935,0.459821 0.71801,0.750156 0.428332,0.679951 0.98117,2.2289 1.939622,2.151679 0.815443,-0.06619 1.383676,-1.587058 1.771036,-2.201825 0.158005,-0.250719 0.311446,-0.639837 0.636078,-0.694995 0.516584,-0.08724 0.757876,0.230663 1.074084,0.594708 0.507157,0.583676 1.389942,1.946089 2.285364,1.728464 0.780894,-0.190046 1.074336,-1.866361 1.325006,-2.530768 0.11844,-0.313902 0.181973,-0.676443 0.530573,-0.800299 0.489809,-0.173499 0.709989,0.06869 1.102918,0.349003 0.607896,0.433243 1.646378,1.57051 2.457058,1.338343 0.496426,-0.141907 0.589993,-0.592703 0.664258,-1.03748 0.120898,-0.72408 0.07185,-2.368804 0.789919,-2.719812 0.379439,-0.185031 0.653074,0.03861 1.002879,0.191551 0.705928,0.307882 2.052144,1.301738 2.803402,0.767705 0.39338,-0.279804 0.354167,-0.726087 0.314053,-1.147797 -0.0714,-0.750155 -0.379942,-2.498677 0.442772,-2.873753 0.237982,-0.108813 0.612609,0.04965 0.852447,0.109309 0.681206,0.169989 2.210849,0.836906 2.803051,0.29585 0.672433,-0.614264 -0.01604,-2.151581 -0.20208,-2.896819 -0.103304,-0.414392 -0.243199,-0.75181 0.0712,-1.102217 0.460822,-0.513625 2.042865,-0.254933 2.693235,-0.193004 0.421709,0.04012 0.867991,0.07933 1.147795,-0.314052 0.533031,-0.749703 -0.475365,-2.147819 -0.789769,-2.853546 -0.184529,-0.41439 -0.354517,-0.677847 -0.08976,-1.102215 0.198571,-0.317763 0.600223,-0.308486 0.935186,-0.364347 0.711543,-0.11854 2.314147,-0.06894 2.685213,-0.78997 0.228656,-0.445027 -0.006,-0.841265 -0.263758,-1.203405 -0.443775,-0.623591 -1.644223,-1.721695 -1.366425,-2.507 0.126864,-0.356975 0.479879,-0.409727 0.8003,-0.530525 0.667415,-0.251673 2.340221,-0.540801 2.530767,-1.325005 0.217626,-0.896725 -1.147295,-1.779761 -1.728464,-2.292284 -0.36254,-0.319919 -0.682461,-0.545516 -0.594707,-1.067166 0.05516,-0.324631 0.444275,-0.478071 0.694996,-0.636075 0.597716,-0.376732 2.095016,-0.948574 2.196809,-1.720892 0.132882,-1.00574 -1.498304,-1.581342 -2.196809,-2.021757 -0.393129,-0.247862 -0.697003,-0.384104 -0.71355,-0.886598 -0.01253,-0.377784 0.407671,-0.641041 0.663406,-0.866789 0.554091,-0.488904 1.764066,-1.26754 1.700383,-2.091708 -0.04061,-0.524404 -0.466841,-0.694244 -0.89808,-0.854955 -0.653375,-0.243649 -2.27403,-0.531877 -2.485638,-1.251043 -0.12586,-0.426927 0.146922,-0.668119 0.38661,-1.002931 0.426725,-0.59541 1.524378,-1.616643 1.34386,-2.406912 -0.207094,-0.907406 -2.005761,-0.891009 -2.754913,-0.996362 -0.335964,-0.04719 -0.737118,-0.04133 -0.935186,-0.358479 -0.275792,-0.442021 -0.07572,-0.722828 0.111816,-1.152361 0.29284,-0.671478 1.159831,-1.858739 0.874009,-2.607438 -0.211105,-0.551234 -0.71405,-0.5395 -1.203957,-0.505955 -0.60925,0.04166 -1.245578,0.0546 -1.855329,0.0546 -0.249717,0 -0.541054,0.04768 -0.750154,-0.116226 -0.459312,-0.35993 -0.331446,-0.74614 -0.209094,-1.237651 0.181021,-0.724081 0.851446,-2.230104 0.246709,-2.848731 -0.595711,-0.60915 -2.136888,0.07858 -2.84768,0.247058 -0.238335,0.05647 -0.618476,0.216774 -0.852447,0.110113 C 50.333896,11.59929 50.642431,9.8504665 50.713838,9.100312 50.75606,8.6566881 50.787097,8.1914518 50.352299,7.9210743 49.599788,7.4531504 48.291881,8.4169492 47.596383,8.7204209 47.311665,8.8446775 47.012908,9.0842651 46.69379,8.9581025 46.18162,8.7556221 46.154592,8.3878654 46.085545,7.8968549 45.987362,7.1986745 45.992883,5.6415934 45.339701,5.2394928 44.512978,4.7305517 43.260179,6.0606717 42.632125,6.5141044 42.4494,6.6460275 42.196625,6.9208175 41.958991,6.9305802 41.406306,6.9532816 41.230199,6.5181399 41.068033,6.0916707 40.810393,5.4142302 40.523219,3.7051911 39.723772,3.5109186 38.82143,3.2916439 37.946318,4.6554754 37.431488,5.239222 37.248011,5.4472347 37.013389,5.8182854 36.715131,5.8538721 36.169364,5.9189965 35.982828,5.5429645 35.728246,5.1389342 35.285625,4.4366121 34.662736,2.6833585 33.606202,2.9605712 M 33.505914,8.2127626 C 35.803764,7.8815114 36.22026,11.410147 33.907066,11.685588 31.74596,11.942926 31.357091,8.5225528 33.505914,8.2127626 M 29.745112,11.13651 c 0.343085,0.04147 0.723979,0.58483 0.950781,0.822012 0.735161,0.768857 1.747067,2.404054 2.910309,2.4551 0.660447,0.02893 1.042395,-0.32388 1.504319,-0.741681 0.596062,-0.539097 1.18666,-1.094944 1.755043,-1.663277 0.264811,-0.264758 0.664808,-0.812683 1.053023,-0.882183 0.355573,-0.06363 0.859269,0.150584 1.203458,0.236681 0.986533,0.246608 1.964592,0.545366 2.908353,0.92651 3.369076,1.360658 6.424051,3.599689 8.694973,6.438291 0.660698,0.825872 1.54604,1.805887 1.922119,2.808064 0.146923,0.391426 -0.362941,1.14559 -0.526561,1.504322 -0.439513,0.963316 -0.86975,1.934856 -1.286295,2.908353 -0.267016,0.623942 -0.489355,1.218749 -0.105301,1.855329 0.297252,0.492764 0.779637,0.692438 1.279724,0.917936 0.716959,0.323179 1.435323,0.644249 2.156192,0.958653 0.304876,0.133032 1.121722,0.346345 1.274162,0.650169 0.308384,0.613861 0.05015,1.572213 0.144914,2.236925 0.169487,1.188863 -0.006,2.379181 -0.203083,3.560224 -0.492915,2.951527 -1.647933,5.787672 -3.305343,8.273763 -0.517937,0.776932 -1.12077,1.442543 -1.717584,2.156193 -0.261801,0.313049 -0.591549,0.822313 -0.956747,1.014062 -0.295148,0.154947 -0.942055,-0.114073 -1.2536,-0.182875 -1.012759,-0.223692 -2.702162,-0.934032 -3.660514,-0.355872 -1.114601,0.672432 -1.17703,2.821554 -1.414011,3.987503 -0.06359,0.312746 -0.07972,0.921947 -0.287776,1.168405 -0.148928,0.176408 -0.496777,0.252576 -0.705125,0.335915 -0.628004,0.251222 -1.260219,0.467342 -1.905474,0.668921 -2.840307,0.886546 -5.882495,1.093139 -8.825348,0.776732 -1.725054,-0.185032 -3.439478,-0.609751 -5.064545,-1.210979 -0.399848,-0.147773 -1.367779,-0.357927 -1.582896,-0.746796 -0.170692,-0.308486 -0.192354,-0.79779 -0.262455,-1.14263 -0.15645,-0.769811 -0.32077,-1.540373 -0.493868,-2.306624 -0.132531,-0.586535 -0.255234,-1.144739 -0.769711,-1.523727 -0.977508,-0.720118 -2.643241,0.01438 -3.710657,0.248865 -0.324985,0.07135 -0.940452,0.324681 -1.253401,0.170088 -0.33115,-0.163569 -0.621083,-0.624393 -0.859167,-0.900988 -0.649915,-0.754818 -1.246329,-1.527888 -1.798666,-2.356769 -2.06759,-3.102862 -3.198738,-6.765783 -3.361605,-10.4801 -0.04694,-1.069873 -0.256838,-2.46508 0.07382,-3.503413 0.108209,-0.339876 0.932628,-0.529069 1.231889,-0.671328 1.035926,-0.492614 3.001019,-0.906504 3.424835,-2.093261 0.485446,-1.359255 -0.836402,-2.86859 -1.491733,-3.961379 -0.266766,-0.444827 -0.659243,-1.054378 -0.582324,-1.604608 0.05466,-0.391173 0.42462,-0.831188 0.638285,-1.153312 0.543109,-0.818651 1.111692,-1.609624 1.750628,-2.356769 2.435845,-2.84828 5.591911,-5.013851 9.097177,-6.320653 0.814089,-0.303522 1.656959,-0.567531 2.507202,-0.749653 0.271631,-0.05817 0.623791,-0.203836 0.902592,-0.170139 M 12.34514,24.210007 c 2.184425,-0.364798 2.86528,3.021328 0.651872,3.420275 -2.13584,0.385006 -2.813037,-3.059388 -0.651872,-3.420275 m 42.271409,0.04829 c 2.239434,-0.290885 2.604482,3.21669 0.351009,3.486364 -2.222634,0.265964 -2.588335,-3.19578 -0.351009,-3.486364 m -34.198221,24.7717 c 2.333701,-0.337169 2.725026,3.205256 0.401152,3.480346 -2.137891,0.252876 -2.526758,-3.173213 -0.401152,-3.480346 m 26.07489,0.100335 c 2.211602,-0.326638 2.892458,3.0988 0.651872,3.429749 -2.193299,0.323982 -2.880573,-3.100605 -0.651872,-3.429749 z"
       id="path1307"
       sodipodi:nodetypes="cccccccccscccccccccccccccsscsssccccccccscsccccccccccccccccccccccccccccscccscccccccccccccccccccccccsccccccccccccscccccsccssssscscscccscccccccccscccccccsccsccscsccccccccccccccccccccccccccccccccccc" />
    <path
       style="fill:#000000;stroke-width:1"
       id="path1099"
       d="" />
    <path
       style="fill:#020202;stroke:none;stroke-width:1;stroke-miterlimit:4;stroke-dasharray:none"
       d="M 33.606211,2.9605759 C 32.906501,3.1441646 32.372015,4.5081721 32.021609,5.0887951 31.860796,5.3552447 31.689856,5.7766154 31.349679,5.83372 30.521401,5.9727489 29.613191,4.547942 29.101772,3.9856611 28.764455,3.6148362 28.298917,3.2953991 27.789704,3.5889626 27.169222,3.9466492 26.923065,5.349619 26.683828,5.9913877 26.563483,6.3141945 26.49654,6.7157525 26.134501,6.8358271 25.339969,7.0993539 24.262073,5.9267421 23.62755,5.4753606 23.243147,5.201915 22.831715,4.9577931 22.37415,5.2394975 21.702772,5.6528153 21.752314,7.1881149 21.634175,7.8968596 21.578318,8.2319724 21.587588,8.6336261 21.269829,8.831947 20.565505,9.2715592 19.239848,8.3317092 18.563005,8.0099346 18.149918,7.8135705 17.665326,7.6636401 17.268537,7.986571 c -0.360536,0.2934927 -0.29224,0.7082351 -0.26451,1.1137492 0.04528,0.660949 0.324934,2.2248388 -0.197016,2.6931838 -0.341332,0.30623 -0.646557,0.175305 -1.052072,0.08223 -0.736315,-0.168985 -2.346741,-0.900635 -2.938741,-0.21281 -0.533231,0.61948 0.09999,2.052494 0.274739,2.752656 0.07698,0.308335 0.25734,0.715854 0.06142,1.002879 -0.487799,0.714754 -2.040303,0.382849 -2.812976,0.349052 -0.4809842,-0.02106 -0.9897421,-0.0725 -1.2326934,0.453453 -0.3444925,0.745843 0.5586534,1.983197 0.852801,2.657433 0.1495804,0.342835 0.3720654,0.631764 0.1911054,1.002881 -0.3482529,0.71435 -1.9979885,0.669422 -2.7195594,0.789917 -0.5012735,0.08368 -0.9974746,0.224395 -1.0676596,0.814691 -0.090096,0.757626 0.9471298,1.728414 1.3614762,2.306623 0.2955546,0.412436 0.56907,0.689482 0.3177712,1.200701 -0.137343,0.279401 -0.543141,0.351258 -0.8121753,0.451546 -0.6416788,0.239237 -2.1133864,0.499284 -2.4283436,1.155869 -0.4549723,0.948475 1.1295799,1.95988 1.7263291,2.478268 0.1865054,0.162016 0.4941438,0.37924 0.5571636,0.630612 0.1364563,0.544312 -0.3128762,0.803057 -0.7075954,1.042845 -0.676251,0.41078 -2.2394143,0.985631 -2.2041326,1.915652 0.03216,0.846983 1.5746908,1.424491 2.2041322,1.821182 0.4056797,0.255633 0.7284404,0.408472 0.715872,0.93674 -0.00828,0.328292 -0.392189,0.569434 -0.6155841,0.766501 -0.5853867,0.516283 -1.9477378,1.38924 -1.7283036,2.292283 0.1007371,0.41444 0.4645376,0.557551 0.8257132,0.686573 0.5879288,0.210003 1.1714945,0.435752 1.7550367,0.657688 0.4415406,0.167882 0.8580508,0.33451 0.843484,0.897879 -0.00591,0.228557 -0.2861548,0.488352 -0.4133058,0.666215 -0.4499473,0.629306 -1.7947285,1.875184 -1.2823526,2.707574 0.4124664,0.670075 1.9493812,0.621988 2.6573668,0.739977 0.4667367,0.07777 0.8256659,0.08585 1.039035,0.563969 0.15198,0.340528 -0.08064,0.643699 -0.2154737,0.952738 -0.3122496,0.715703 -1.3759365,2.167574 -0.6967532,2.891853 0.3097902,0.330299 0.7278966,0.248866 1.1267899,0.221538 0.730095,-0.04999 2.241486,-0.338572 2.725374,0.296451 0.230814,0.302871 0.07276,0.666213 -0.01124,1.002831 -0.187588,0.751408 -0.901237,2.351754 -0.154643,2.936935 0.606191,0.474864 2.084688,-0.168485 2.755766,-0.335966 0.37633,-0.09377 0.724431,-0.243199 1.052773,0.02908 0.579315,0.479876 0.294446,2.035345 0.246459,2.735355 -0.03209,0.469347 -0.08103,0.94371 0.406417,1.207467 0.750805,0.406167 2.022057,-0.528517 2.707024,-0.827375 0.382299,-0.16698 0.644852,-0.379591 1.052974,-0.166478 0.387916,0.203084 0.390372,0.54707 0.45536,0.939698 0.121699,0.734611 0.06824,2.484637 0.898581,2.777478 0.808871,0.284818 1.906022,-0.875014 2.507199,-1.317284 0.364298,-0.268269 0.591549,-0.51849 1.053024,-0.371064 0.386961,0.124356 0.449943,0.47035 0.580468,0.816344 0.254731,0.675438 0.553089,2.392871 1.37515,2.540796 0.875464,0.157954 1.732676,-1.15983 2.235219,-1.738492 0.30618,-0.352514 0.52927,-0.653879 1.024143,-0.599723 0.383402,0.04211 0.534935,0.459821 0.71801,0.750156 0.428332,0.679951 0.98117,2.2289 1.939622,2.151679 0.815443,-0.06619 1.383676,-1.587058 1.771036,-2.201825 0.158005,-0.250719 0.311446,-0.639837 0.636078,-0.694995 0.516584,-0.08724 0.757876,0.230663 1.074084,0.594708 0.507157,0.583676 1.389942,1.946089 2.285364,1.728464 0.780894,-0.190046 1.074336,-1.866361 1.325006,-2.530768 0.11844,-0.313902 0.181973,-0.676443 0.530573,-0.800299 0.489809,-0.173499 0.709989,0.06869 1.102918,0.349003 0.607896,0.433243 1.646378,1.57051 2.457058,1.338343 0.496426,-0.141907 0.589993,-0.592703 0.664258,-1.03748 0.120898,-0.72408 0.07185,-2.368804 0.789919,-2.719812 0.379439,-0.185031 0.653074,0.03861 1.002879,0.191551 0.705928,0.307882 2.052144,1.301738 2.803402,0.767705 0.39338,-0.279804 0.354167,-0.726087 0.314053,-1.147797 -0.0714,-0.750155 -0.379942,-2.498677 0.442772,-2.873753 0.237982,-0.108813 0.612609,0.04965 0.852447,0.109309 0.681206,0.169989 2.210849,0.836906 2.803051,0.29585 0.672433,-0.614264 -0.01604,-2.151581 -0.20208,-2.896819 -0.103304,-0.414392 -0.243199,-0.75181 0.0712,-1.102217 0.460822,-0.513625 2.042865,-0.254933 2.693235,-0.193004 0.421709,0.04012 0.867991,0.07933 1.147795,-0.314052 0.533031,-0.749703 -0.475365,-2.147819 -0.789769,-2.853546 -0.184529,-0.41439 -0.354517,-0.677847 -0.08976,-1.102215 0.198571,-0.317763 0.600223,-0.308486 0.935186,-0.364347 0.711543,-0.11854 2.314147,-0.06894 2.685213,-0.78997 0.228656,-0.445027 -0.006,-0.841265 -0.263758,-1.203405 -0.443775,-0.623591 -1.644223,-1.721695 -1.366425,-2.507 0.126864,-0.356975 0.479879,-0.409727 0.8003,-0.530525 0.667415,-0.251673 2.340221,-0.540801 2.530767,-1.325005 0.217626,-0.896725 -1.147295,-1.779761 -1.728464,-2.292284 -0.36254,-0.319919 -0.682461,-0.545516 -0.594707,-1.067166 0.05516,-0.324631 0.444275,-0.478071 0.694996,-0.636075 0.597716,-0.376732 2.095016,-0.948574 2.196809,-1.720892 0.132882,-1.00574 -1.498304,-1.581342 -2.196809,-2.021757 -0.393129,-0.247862 -0.697003,-0.384104 -0.71355,-0.886598 -0.01253,-0.377784 0.407671,-0.641041 0.663406,-0.866789 0.554091,-0.488904 1.764066,-1.26754 1.700383,-2.091708 -0.04061,-0.524404 -0.466841,-0.694244 -0.89808,-0.854955 -0.653375,-0.243649 -2.27403,-0.531877 -2.485638,-1.251043 -0.12586,-0.426927 0.146922,-0.668119 0.38661,-1.002931 0.426725,-0.59541 1.524378,-1.616643 1.34386,-2.406912 -0.207094,-0.907406 -2.005761,-0.891009 -2.754913,-0.996362 -0.335964,-0.04719 -0.737118,-0.04133 -0.935186,-0.358479 -0.275792,-0.442021 -0.07572,-0.722828 0.111816,-1.152361 0.29284,-0.671478 1.159831,-1.858739 0.874009,-2.607438 -0.211105,-0.551234 -0.71405,-0.5395 -1.203957,-0.505955 -0.60925,0.04166 -1.245578,0.0546 -1.855329,0.0546 -0.249717,0 -0.541054,0.04768 -0.750154,-0.116226 -0.459312,-0.35993 -0.331446,-0.74614 -0.209094,-1.237651 0.181021,-0.724081 0.851446,-2.230104 0.246709,-2.848731 -0.595711,-0.60915 -2.136888,0.07858 -2.84768,0.247058 -0.238335,0.05647 -0.618476,0.216774 -0.852447,0.110113 C 50.333896,11.59929 50.642431,9.8504665 50.713838,9.100312 50.75606,8.6566881 50.787097,8.1914518 50.352299,7.9210743 49.599788,7.4531504 48.291881,8.4169492 47.596383,8.7204209 47.311665,8.8446775 47.012908,9.0842651 46.69379,8.9581025 46.18162,8.7556221 46.154592,8.3878654 46.085545,7.8968549 45.987362,7.1986745 45.992883,5.6415934 45.339701,5.2394928 44.512978,4.7305517 43.260179,6.0606717 42.632125,6.5141044 42.4494,6.6460275 42.196625,6.9208175 41.958991,6.9305802 41.406306,6.9532816 41.230199,6.5181399 41.068033,6.0916707 40.810393,5.4142302 40.523219,3.7051911 39.723772,3.5109186 38.82143,3.2916439 37.946318,4.6554754 37.431488,5.239222 37.248011,5.4472347 37.013389,5.8182854 36.715131,5.8538721 36.169364,5.9189965 35.982828,5.5429645 35.728246,5.1389342 35.285625,4.4366121 34.662736,2.6833585 33.606202,2.9605712 M 33.505914,8.2127626 C 35.803764,7.8815114 36.22026,11.410147 33.907066,11.685588 31.74596,11.942926 31.357091,8.5225528 33.505914,8.2127626 M 29.745112,11.13651 c 0.343085,0.04147 0.723979,0.58483 0.950781,0.822012 0.735161,0.768857 1.747067,2.404054 2.910309,2.4551 0.660447,0.02893 1.042395,-0.32388 1.504319,-0.741681 0.596062,-0.539097 1.18666,-1.094944 1.755043,-1.663277 0.264811,-0.264758 0.664808,-0.812683 1.053023,-0.882183 0.355573,-0.06363 0.859269,0.150584 1.203458,0.236681 0.986533,0.246608 1.964592,0.545366 2.908353,0.92651 3.369076,1.360658 6.424051,3.599689 8.694973,6.438291 0.660698,0.825872 1.54604,1.805887 1.922119,2.808064 0.146923,0.391426 -0.362941,1.14559 -0.526561,1.504322 -0.439513,0.963316 -0.86975,1.934856 -1.286295,2.908353 -0.267016,0.623942 -0.489355,1.218749 -0.105301,1.855329 0.297252,0.492764 0.779637,0.692438 1.279724,0.917936 0.716959,0.323179 1.435323,0.644249 2.156192,0.958653 0.304876,0.133032 1.121722,0.346345 1.274162,0.650169 0.308384,0.613861 0.05015,1.572213 0.144914,2.236925 0.169487,1.188863 -0.006,2.379181 -0.203083,3.560224 -0.492915,2.951527 -1.647933,5.787672 -3.305343,8.273763 -0.517937,0.776932 -1.12077,1.442543 -1.717584,2.156193 -0.261801,0.313049 -0.591549,0.822313 -0.956747,1.014062 -0.295148,0.154947 -0.942055,-0.114073 -1.2536,-0.182875 -1.012759,-0.223692 -2.702162,-0.934032 -3.660514,-0.355872 -1.114601,0.672432 -1.17703,2.821554 -1.414011,3.987503 -0.06359,0.312746 -0.07972,0.921947 -0.287776,1.168405 -0.148928,0.176408 -0.496777,0.252576 -0.705125,0.335915 -0.628004,0.251222 -1.260219,0.467342 -1.905474,0.668921 -2.840307,0.886546 -5.882495,1.093139 -8.825348,0.776732 -1.725054,-0.185032 -3.439478,-0.609751 -5.064545,-1.210979 -0.399848,-0.147773 -1.367779,-0.357927 -1.582896,-0.746796 -0.170692,-0.308486 -0.192354,-0.79779 -0.262455,-1.14263 -0.15645,-0.769811 -0.32077,-1.540373 -0.493868,-2.306624 -0.132531,-0.586535 -0.255234,-1.144739 -0.769711,-1.523727 -0.977508,-0.720118 -2.643241,0.01438 -3.710657,0.248865 -0.324985,0.07135 -0.940452,0.324681 -1.253401,0.170088 -0.33115,-0.163569 -0.621083,-0.624393 -0.859167,-0.900988 -0.649915,-0.754818 -1.246329,-1.527888 -1.798666,-2.356769 -2.06759,-3.102862 -3.198738,-6.765783 -3.361605,-10.4801 -0.04694,-1.069873 -0.256838,-2.46508 0.07382,-3.503413 0.108209,-0.339876 0.932628,-0.529069 1.231889,-0.671328 1.035926,-0.492614 3.001019,-0.906504 3.424835,-2.093261 0.485446,-1.359255 -0.836402,-2.86859 -1.491733,-3.961379 -0.266766,-0.444827 -0.659243,-1.054378 -0.582324,-1.604608 0.05466,-0.391173 0.42462,-0.831188 0.638285,-1.153312 0.543109,-0.818651 1.111692,-1.609624 1.750628,-2.356769 2.435845,-2.84828 5.591911,-5.013851 9.097177,-6.320653 0.814089,-0.303522 1.656959,-0.567531 2.507202,-0.749653 0.271631,-0.05817 0.623791,-0.203836 0.902592,-0.170139 M 12.34514,24.210007 c 2.184425,-0.364798 2.86528,3.021328 0.651872,3.420275 -2.13584,0.385006 -2.813037,-3.059388 -0.651872,-3.420275 m 42.271409,0.04829 c 2.239434,-0.290885 2.604482,3.21669 0.351009,3.486364 -2.222634,0.265964 -2.588335,-3.19578 -0.351009,-3.486364 m -34.198221,24.7717 c 2.333701,-0.337169 2.725026,3.205256 0.401152,3.480346 -2.137891,0.252876 -2.526758,-3.173213 -0.401152,-3.480346 m 26.07489,0.100335 c 2.211602,-0.326638 2.892458,3.0988 0.651872,3.429749 -2.193299,0.323982 -2.880573,-3.100605 -0.651872,-3.429749 z"
       id="path1207"
       sodipodi:nodetypes="cccccccccscccccccccccccccsscsssccccccccscsccccccccccccccccccccccccccccscccscccccccccccccccccccccccsccccccccccccscccccsccssssscscscccscccccccccscccccccsccsccscsccccccccccccccccccccccccccccccccccc" />
    <g
       id="g4015"
       transform="translate(-0.13797856,0.1226383)">
      <text
         xml:space="preserve"
         style="font-size:46.1792px;line-height:1.25;font-family:sans-serif;letter-spacing:0px;word-spacing:0px;fill:none;stroke:#ffffff;stroke-width:3;stroke-miterlimit:4;stroke-dasharray:none;stroke-opacity:1"
         x="24.276392"
         y="49.280926"
         id="text3973"><tspan
           sodipodi:role="line"
           id="tspan3971"
           style="fill:none;stroke:#ffffff;stroke-width:3;stroke-miterlimit:4;stroke-dasharray:none;stroke-opacity:1"
           x="24.276392"
           y="49.280926">I</tspan></text>
      <text
         xml:space="preserve"
         style="font-size:46.1792px;line-height:1.25;font-family:sans-serif;letter-spacing:0px;word-spacing:0px;stroke-width:0.264583"
         x="24.276392"
         y="49.280926"
         id="text3117"><tspan
           sodipodi:role="line"
           id="tspan3115"
           style="stroke-width:0.264583"
           x="24.276392"
           y="49.280926">I</tspan></text>
    </g>
  </g>
  <g
     inkscape:groupmode="layer"
     id="layer2"
     inkscape:label="Layer 2"
     style="display:inline" />
</svg>
